<?xml version="1.0" encoding="UTF-8" standalone="no"?>
<!-- Generator: Adobe Illustrator 16.0.0, SVG Export Plug-In . SVG Version: 6.00 Build 0)  -->

<svg
   version="1.1"
   id="Layer_1"
   x="0px"
   y="0px"
   width="552.78699"
   height="118.381"
   viewBox="0 0 552.78701 118.381"
   enable-background="new 0 0 651.97 283.46"
   xml:space="preserve"
   sodipodi:docname="Samtalscentret-logotype.svg"
   inkscape:version="1.3.2 (091e20e, 2023-11-25, custom)"
   xmlns:inkscape="http://www.inkscape.org/namespaces/inkscape"
   xmlns:sodipodi="http://sodipodi.sourceforge.net/DTD/sodipodi-0.dtd"
   xmlns="http://www.w3.org/2000/svg"
   xmlns:svg="http://www.w3.org/2000/svg"><defs
   id="defs34" /><sodipodi:namedview
   id="namedview34"
   pagecolor="#505050"
   bordercolor="#ffffff"
   borderopacity="1"
   inkscape:showpageshadow="0"
   inkscape:pageopacity="0"
   inkscape:pagecheckerboard="1"
   inkscape:deskcolor="#505050"
   inkscape:zoom="1.56679"
   inkscape:cx="332.52701"
   inkscape:cy="165.62526"
   inkscape:window-width="2560"
   inkscape:window-height="1369"
   inkscape:window-x="-8"
   inkscape:window-y="-8"
   inkscape:window-maximized="1"
   inkscape:current-layer="g34"
   showguides="true" />
   <defs>
   <style>
   .bokstav {
      fill: #007a35;   
      stroke: #007a35;
   }
   </style>
   </defs>
<g
   id="g34">
	<g
   id="g17"
   transform="translate(-51.212506,-88.718495)">
		<path
   fill="#b8d587"
   d="m 109.437,141.43 c 0,0 0.003,-22.016 7.563,-38.216 13.283,-28.465 42.916,-9.931 34.331,12.199 -7.476,19.269 -41.381,25.777 -41.381,25.777 0,0 26.905,-5.872 44.352,1.373 32.501,13.499 11.633,53.271 -21.871,26.013 -11.751,-9.56 -22.217,-25.88 -22.217,-25.88 0,0 9.239,14.438 12.611,25.794 5.954,20.04 0.023,36.002 -11.716,38.285 -14.355,2.793 -24.951,-12.678 -16.085,-37.521 4.742,-13.291 14.406,-28.246 14.406,-28.246 0,0 -13,21.987 -29.876,32.276 -25.842,15.755 -42.794,-19.817 -11.089,-32.269 14.507,-5.697 39.266,-0.155 39.266,-0.155 0,0 -25.267,-5.928 -37.5,-18.521 -19.328,-19.897 9.442,-42.924 27.541,-21.991 11.533,13.34 11.665,41.082 11.665,41.082 z"
   id="path1"
   inkscape:label="Blomma" />
		<g
   id="g15"
   inkscape:label="Kraftkällan-grupp">
				
				
				
				
				
				
				
				
				
				
				
			<path class="bokstav"
   fill="#007a35"
   d="m 541.193,168.006 -7.769,-24.24 h -1.46 l -7.753,24.258 z m 2.191,6.824 h -21.381 l -5.319,16.502 h -8.137 l 17.601,-51.793 c 0.283,-0.746 0.696,-1.104 1.158,-1.437 0.468,-0.329 1.183,-0.502 1.804,-0.502 h 7.171 c 0.625,0 1.34,0.179 1.804,0.51 0.471,0.332 0.902,0.715 1.154,1.447 l 17.618,51.775 H 548.7 Z"
   id="path5"
   inkscape:label="A2" /><path
   fill="#007a35"
   d="m 604,138.141 v 50.237 c 0,1.77 -1.379,3.093 -3.164,3.093 h -6.795 c -1.03,0 -1.718,-0.274 -2.191,-0.631 -0.479,-0.352 -0.966,-0.92 -1.434,-1.932 l -18.394,-37.104 c -0.482,-1.01 -1.267,-2.609 -1.87,-3.891 -0.491,-1.058 -0.748,-1.711 -1.021,-2.576 h -0.375 c 0.103,1.111 0.146,1.816 0.2,2.978 0.051,1.165 0.081,2.329 0.081,3.489 v 39.666 h -7.944 v -50.133 c 0,-1.771 1.421,-3.197 3.261,-3.197 h 6.556 c 0.792,0 1.622,0.199 2.18,0.623 0.761,0.576 1.165,1.372 1.479,2.083 l 17.839,36.144 c 0.582,1.062 1.164,2.268 1.824,3.605 0.658,1.344 1.034,2.135 1.616,3.448 h 0.542 c -0.054,-1.364 -0.104,-2.165 -0.164,-3.482 -0.051,-1.315 -0.072,-2.629 -0.072,-3.944 v -38.476 z"
   id="path12"
   inkscape:label="N" /><path class="bokstav"
   fill="#007a35"
   d="m 479.666,139.073 v 41.738 c 0,1.571 0.408,2.624 1.213,3.401 0.587,0.578 1.6,1.015 3.615,1.015 h 20.19 l 0.373,6.037 c -3.432,0.249 -7.395,0.409 -10.96,0.458 -3.558,0.05 -7.103,0.138 -10.637,0.138 -4.014,0 -7.263,-1.067 -8.947,-2.917 -1.694,-1.844 -2.713,-4.51 -2.713,-7.306 v -42.564 z"
   id="path11"
   inkscape:label="L2" /><path class="bokstav"
   fill="#007a35"
   d="m 440.382,139.073 v 41.738 c 0,1.571 0.409,2.624 1.212,3.401 0.592,0.578 1.601,1.015 3.621,1.015 H 465.4 l 0.375,6.037 c -3.433,0.249 -7.395,0.409 -10.956,0.458 -3.566,0.05 -7.106,0.138 -10.648,0.138 -4.01,0 -7.255,-1.067 -8.949,-2.917 -1.688,-1.844 -2.704,-4.51 -2.704,-7.306 v -42.564 z"
   id="path10"
   inkscape:label="L1" /><g
   id="g2"
   inkscape:label="Ä-grupp"><path class="bokstav"
     fill="#007a35"
     d="m 395.283,134.007 c -1.397,0 -2.188,-0.865 -2.188,-2.229 l -0.003,-4.372 c 0,-1.362 0.794,-2.179 2.191,-2.179 h 2.423 c 1.393,0 2.191,0.817 2.191,2.179 l -0.007,4.372 c 0,1.364 -0.792,2.229 -2.185,2.229 z m 13.686,0 c -1.394,0 -2.184,-0.865 -2.184,-2.229 l -0.011,-4.372 c 0,-1.362 0.801,-2.179 2.194,-2.179 h 2.423 c 1.397,0 2.191,0.817 2.191,2.179 l -0.004,4.372 c 0,1.364 -0.79,2.229 -2.188,2.229 z"
     id="path7"
     inkscape:label="Ä prickar " /></g><path class="bokstav"
   fill="#007a35"
   d="M 411.829,168.355 404.062,144.45 H 402.6 l -7.756,23.923 z m 2.193,6.826 h -21.387 l -5.309,16.504 h -8.144 l 17.604,-51.446 c 0.281,-0.744 0.689,-1.106 1.156,-1.438 0.471,-0.329 1.178,-0.504 1.797,-0.504 h 7.176 c 0.624,0 1.337,0.185 1.806,0.512 0.465,0.332 0.901,0.715 1.148,1.446 l 17.62,51.431 h -8.152 z"
   id="path8"
   inkscape:label="Ä" /><path class="bokstav"
   fill="#007a35"
   d="m 340.18,138.937 h 7.541 v 16.321 c 0,3.43 -0.373,5.791 -0.373,5.791 h 5.484 l 15.774,-22.189 h 8.435 l -15.322,21.847 c -2.346,3.248 -2.982,3.496 -2.982,3.496 0,0 1.678,1.445 3.449,4.088 1.771,2.641 15.819,23.394 15.819,23.394 h -8.62 l -16.473,-24.312 -5.572,0.004 c 0,0 0.374,2.155 0.374,4.748 0,1.596 0.007,19.56 0.007,19.56 h -7.541 z"
   id="path3"
   inkscape:label="K2" /><path class="bokstav"
   id="polygon6"
   inkscape:label="T"
   d="M 331.523,146.393 H 315.07 v 45.375 h -7.477 v -45.375 h -16.361 v -6.759 h 40.291 z" /><path class="bokstav"
   fill="#007a35"
   d="m 261.907,161.047 h 21.462 v 6.356 h -21.462 v 24.149 h -7.551 v -43.361 c 0,-2.979 0.912,-5.549 2.704,-7.19 1.787,-1.638 4.201,-2.714 7.23,-2.714 2.385,0 12.327,0.084 14.709,0.133 2.385,0.053 5.41,0.234 7.599,0.437 l -0.436,6.061 h -19.756 c -1.74,0 -3.006,0.527 -3.505,1.087 -0.553,0.626 -0.967,1.444 -0.994,3.474 z"
   id="path6"
   inkscape:label="F" /><path class="bokstav"
   fill="#007a35"
   d="m 232.66,168.301 -7.769,-24.243 h -1.461 l -7.755,24.255 z m 2.191,6.822 h -21.383 l -5.313,16.5 h -8.142 l 17.604,-51.793 c 0.281,-0.744 0.69,-1.104 1.159,-1.438 0.468,-0.328 1.175,-0.505 1.799,-0.505 h 7.172 c 0.625,0 1.336,0.184 1.805,0.514 0.47,0.332 0.902,0.713 1.15,1.444 l 17.624,51.778 h -8.159 z"
   id="path4"
   inkscape:label="A" /><path class="bokstav"
   fill="#007a35"
   d="m 166.386,163.252 c 0.064,-0.004 10.593,0.021 10.649,0.021 2.452,-0.062 3.999,-0.318 5.305,-0.67 1.513,-0.41 2.822,-1.341 3.474,-2.771 0.65,-1.433 0.99,-3.38 0.99,-5.938 0,-2.562 -0.205,-4.205 -0.855,-5.59 -0.65,-1.377 -1.599,-2.264 -3.068,-2.814 -1.48,-0.551 -3.379,-0.75 -5.934,-0.75 -4.096,0 -7.585,0.042 -10.56,0.092 v 18.42 z m 0,6.605 v 21.766 h -7.487 v -52.514 c 0,0 4.269,-0.963 9.901,-1.029 0.258,-0.006 1.458,0.006 2.067,0 1.973,-0.024 3.752,0 6.5,0 3.998,0 7.377,0.473 9.826,1.353 2.451,0.878 4.402,2.615 5.528,4.768 1.125,2.158 1.709,5.439 1.709,9.352 0,2.811 -0.346,5.27 -0.991,7.152 -0.656,1.881 -1.77,3.535 -3.148,4.563 -1.977,1.467 -4.626,1.927 -4.626,1.927 0,0 1.126,0.503 1.901,1.194 0.761,0.678 1.397,1.361 2.096,2.387 0.703,1.031 1.255,2.328 1.603,3.781 l 5.198,17.066 h -8.045 l -4.619,-16.496 c -0.65,-1.956 -1.379,-3.189 -2.481,-4.016 -1.099,-0.826 -2.535,-1.179 -4.281,-1.176 -4.028,0.014 -8.399,-0.049 -10.651,-0.078 z"
   id="path13"
   inkscape:label="R" /><path class="bokstav"
   fill="#007a35"
   d="m 113.688,138.872 h 7.534 v 16.322 c 0,3.429 -0.37,5.79 -0.37,5.79 h 5.486 l 15.771,-22.191 h 8.44 l -15.322,21.852 c -2.346,3.246 -2.984,3.498 -2.984,3.498 0,0 1.679,1.441 3.452,4.084 1.77,2.643 15.817,23.393 15.817,23.393 h -8.621 l -16.479,-24.31 -5.568,0.006 c 0,0 0.371,2.153 0.371,4.745 0,1.594 0.005,19.559 0.005,19.559 h -7.534 v -52.748 z"
   id="path2"
   inkscape:label="K" /></g>
	</g>
	<g
   id="g33"
   inkscape:label="Samtalscentret-grupp"
   transform="translate(-51.212506,-88.718495)">
	<path class="bokstav"
   d="m 15.297504,-16.808029 v -2.1422 H 0.6591384 v 2.1422 H 6.7561686 V 0 h 2.4168408 v -16.808029 z"
   fill="#007a35"
   id="text30"   
   inkscape:label="T3"
   transform="matrix(1.0069,0,0,1,587.6797,118.3076)"
    /><path class="bokstav"
   d="M 13.91586,-2.0076241 H 6.2978892 c -1.1275697,0 -1.650102,-0.5500339 -1.650102,-1.8426138 V -9.0480591 H 12.843294 V -11.00068 H 4.6477872 v -4.125255 c 0,-1.265078 0.5225323,-1.815112 1.650102,-1.815112 H 13.91586 l 0.110007,-1.897617 c -2.530157,-0.16501 -5.4178351,-0.16501 -8.1405033,-0.16501 -2.2276377,0 -3.6302243,1.265078 -3.657726,3.300204 v 12.4307678 c 0.027502,2.0351257 1.4300883,3.3002039 3.657726,3.3002039 2.7226682,0 5.6103463,0 8.1405033,-0.1650102 z"
   fill="#007a35"
   id="text31"   
   inkscape:label="E2"
   transform="translate(555.2617,118.374)"
   /><path class="bokstav"
   fill="#007a35"
   stroke="#007a35"
   stroke-width="1.5"
   stroke-miterlimit="10"
   d="m 529.975,99.248 c 1.533,0 2.77,0.161 3.709,0.482 0.939,0.322 1.625,0.878 2.057,1.668 0.432,0.791 0.646,1.903 0.646,3.336 0,1.03 -0.123,1.889 -0.373,2.578 -0.25,0.689 -0.637,1.223 -1.164,1.599 -0.527,0.377 -1.232,0.62 -2.115,0.731 v 0.138 c 0.326,0.074 0.648,0.225 0.965,0.455 0.317,0.23 0.607,0.533 0.877,0.91 0.268,0.376 0.469,0.832 0.604,1.364 l 1.926,6.011 h -2.703 l -1.754,-5.956 c -0.248,-0.717 -0.584,-1.227 -1.006,-1.531 -0.422,-0.303 -0.969,-0.455 -1.639,-0.455 -1.17,0 -2.186,-0.004 -3.049,-0.014 -0.861,-0.009 -1.582,-0.022 -2.156,-0.042 -0.574,-0.018 -1.035,-0.027 -1.381,-0.027 l 0.088,-2.013 h 6.412 c 0.979,-0.018 1.748,-0.128 2.314,-0.331 0.564,-0.202 0.973,-0.565 1.223,-1.089 0.248,-0.524 0.373,-1.254 0.373,-2.192 0,-0.938 -0.125,-1.659 -0.373,-2.165 -0.25,-0.505 -0.658,-0.859 -1.223,-1.061 -0.566,-0.202 -1.336,-0.303 -2.314,-0.303 -1.572,0 -2.93,0.009 -4.07,0.027 -1.139,0.019 -1.91,0.027 -2.313,0.027 l -0.285,-1.868 c 0.678,-0.111 1.291,-0.163 1.924,-0.2 0.633,-0.036 1.326,-0.06 2.084,-0.069 0.757,-0.006 1.663,-0.01 2.716,-0.01 z m -4.342,0.247 v 19.026 h -2.502 V 99.623 Z"
   id="path26"
   inkscape:label="R" /><path class="bokstav"
   d="m 15.297504,-16.808029 v -2.1422 H 0.6591384 v 2.1422 H 6.7561686 V 0 h 2.4168408 v -16.808029 z"
   fill="#007a35"
   id="text29"   
   inkscape:label="T2"
   transform="matrix(1.0069,0,0,1,487.3965,118.3076)"
    />
   <path class="bokstav"
   d="m 17.048395,-19.034615 h -2.400017 v 13.7931992 c 0,0.9655239 0.02759,1.9034615 0.08276,2.8965719 h -0.468969 c -0.413796,-0.9379376 -0.910351,-1.9862208 -1.29656,-2.7586399 L 6.7310814,-18.262196 C 6.5103902,-18.786338 6.2069398,-19.034615 5.6552118,-19.034615 H 3.3655407 c -0.6344872,0 -0.965524,0.331036 -0.965524,0.965524 V 0 h 2.4276031 v -14.262168 c 0,-0.827592 -0.027586,-1.682771 -0.1103456,-2.510363 h 0.4413824 c 0.2206912,0.77242 0.7448328,1.793116 1.0758696,2.510363 L 12.662157,-0.77241917 C 12.882848,-0.24827759 13.186299,0 13.738027,0 h 2.37243 c 0.606901,0 0.937938,-0.33103679 0.937938,-0.96552397 z"
   fill="#007a35"
   id="text25"   
   inkscape:label="N"
   transform="matrix(1.0407,0,0,1,450.1641,118.3911)"/>
   <path class="bokstav"
   fill="#007a35"
   d="M 13.91586,-2.0076241 H 6.2978892 c -1.1275697,0 -1.650102,-0.5500339 -1.650102,-1.8426138 V -9.0480591 H 12.843294 V -11.00068 H 4.6477872 v -4.125255 c 0,-1.265078 0.5225323,-1.815112 1.650102,-1.815112 H 13.91586 l 0.110007,-1.897617 c -2.530157,-0.16501 -5.4178351,-0.16501 -8.1405033,-0.16501 -2.2276377,0 -3.6302243,1.265078 -3.657726,3.300204 v 12.4307678 c 0.027502,2.0351257 1.4300883,3.3002039 3.657726,3.3002039 2.7226682,0 5.6103463,0 8.1405033,-0.1650102 z"
   id="text28"   
   inkscape:label="E1"
   transform="translate(418.0938,118.312)"/>
   <path class="bokstav"
   d="m 8.8339889,-18.679097 c -5.2950717,0 -7.2108765,2.50119 -7.2108765,9.4991989 0,6.9980093 1.9158048,9.4991989 7.2108765,9.4991989 2.3947561,0 3.8316101,-0.1862588 5.3748971,-0.6119932 L 13.96941,-2.0488468 c -1.49007,0.2128672 -2.873707,0.2926924 -5.1354211,0.2926924 -3.592134,0 -4.7362952,-1.8359796 -4.7362952,-7.4237437 0,-5.5877639 1.1441612,-7.4237439 4.7362952,-7.4237439 2.1286721,0 3.1664001,0.07982 4.7629041,0.239476 l 0.239475,-1.782763 c -1.516679,-0.372518 -2.687448,-0.532168 -5.0023791,-0.532168 z"
   fill="#007a35"
   id="text24"   
   inkscape:label="C"
   transform="matrix(1.0247,0,0,1,385.8984,117.9976)" />
   <path class="bokstav"
   d="m 7.444529,-18.731395 c -4.1091666,0 -5.9769695,0.56034 -5.9769695,4.856287 0,2.801705 0.9605844,4.4560445 3.6288743,5.123117 l 3.8156546,0.9605844 c 1.6009736,0.4002434 2.3214126,0.9072185 2.3214126,3.0418505 0,2.5348754 -0.880536,2.9618018 -3.7089233,2.9618018 -1.5209253,0.026683 -2.5081926,-0.026683 -5.6300918,-0.1334145 l -0.1600974,1.7343885 c 2.5081925,0.45360929 4.50941,0.50697509 5.7101405,0.50697509 4.295947,0 6.16375,-0.77380408 6.16375,-5.01638509 0,-2.8550703 -0.880536,-4.4827271 -3.7089233,-5.1764825 L 6.1637498,-10.806574 c -1.6276569,-0.400244 -2.3214123,-0.987268 -2.3214123,-3.015168 0,-2.721656 1.0406331,-2.801704 3.7089231,-2.801704 1.7077055,0 3.6555574,0.05337 5.2031654,0.133414 l 0.160097,-1.707705 c -1.84112,-0.400244 -3.7356056,-0.506976 -5.469994,-0.533658 z"
   fill="#007a35"
   id="text17"   
   inkscape:label="S2"
   transform="matrix(1.0571,0,0,1,353.7813,118.0732)" />
   <path class="bokstav"
   d="M 4.7386343,-19.009638 H 2.341767 v 15.4556623 c 0,2.0662649 1.0469075,3.5815259 3.8570279,3.5815259 2.4519677,0 4.9590361,0 7.3559031,-0.1928514 L 13.444497,-2.0387148 H 6.5844977 c -1.2673092,0 -1.8458634,-0.551004 -1.8458634,-1.8183131 z"
   fill="#007a35"
   id="text23"   
   inkscape:label="L"
   transform="matrix(1.0571,0,0,1,322.4292,118.3291)" />
   <path class="bokstav"
   d="M 12.488168,-5.9546231 14.362771,0 h 2.508661 l -6.120029,-18.360088 c -0.110271,-0.413515 -0.468651,-0.661625 -0.9097343,-0.661625 H 7.3054403 c -0.4410831,0 -0.7994632,0.24811 -0.909734,0.661625 L 0.27567699,0 H 2.7843376 L 4.6589412,-5.9546231 Z M 11.826543,-8.0497682 H 5.320566 l 2.3983898,-7.5535498 c 0.1654062,-0.496218 0.3308124,-1.047572 0.4686509,-1.543791 h 0.7718956 c 0.1378385,0.496219 0.3032447,1.047573 0.4686509,1.543791 z"
   fill="#007a35"
   id="text19"   
   inkscape:label="A2"
   transform="matrix(1.0198,0,0,1,292.3628,118.3804)" />
   <path class="bokstav"
   d="m 15.297504,-16.808029 v -2.1422 H 0.6591384 v 2.1422 H 6.7561686 V 0 h 2.4168408 v -16.808029 z"
   fill="#007a35"
   id="text18"   
   inkscape:label="T"
   transform="matrix(1.0069,0,0,1,266.397,118.3286)" />
   <path class="bokstav"
   d="m 17.592832,-18.967272 c -0.549776,0 -0.90713,0.274888 -1.044574,0.824664 l -3.546056,11.5178072 c -0.274888,0.9071304 -0.467309,1.7317944 -0.714708,2.611436 H 11.792695 C 11.545296,-4.8930064 11.352874,-5.7176704 11.077986,-6.5698232 L 7.5319312,-18.142608 c -0.1649328,-0.549776 -0.4673096,-0.824664 -1.0170856,-0.824664 h -2.74888 c -0.6322424,0 -0.9895968,0.357354 -1.0170856,1.017086 L 2.0066824,0 H 4.4256968 L 5.085428,-16.96059 h 0.549776 l 4.2332752,13.9917996 c 0.1649328,0.5222872 0.5222868,0.824664 1.0995518,0.824664 h 2.171615 c 0.549776,0 0.907131,-0.3023768 1.044575,-0.824664 L 18.417496,-16.96059 h 0.577265 L 19.681981,0 h 2.419014 L 21.30382,-17.950186 c 0,-0.659732 -0.357354,-1.017086 -0.989597,-1.017086 z"
   fill="#007a35"
   id="text22"   
   inkscape:label="M"
   transform="matrix(1.0908,0,0,1,227.8564,118.3462)" />
   <path class="bokstav"
   d="M 12.488168,-5.9546231 14.362771,0 h 2.508661 l -6.120029,-18.360088 c -0.110271,-0.413515 -0.468651,-0.661625 -0.9097343,-0.661625 H 7.3054403 c -0.4410831,0 -0.7994632,0.24811 -0.909734,0.661625 L 0.27567699,0 H 2.7843376 L 4.6589412,-5.9546231 Z M 11.826543,-8.0497682 H 5.320566 l 2.3983898,-7.5535498 c 0.1654062,-0.496218 0.3308124,-1.047572 0.4686509,-1.543791 h 0.7718956 c 0.1378385,0.496219 0.3032447,1.047573 0.4686509,1.543791 z"
   fill="#007a35"
   id="text21"   
   inkscape:label="A1"
   transform="matrix(1.0198,0,0,1,194.0659,118.3804)" />
   <path class="bokstav"
   d="m 7.4298256,-18.6944 c -4.1010507,0 -5.9651646,0.559234 -5.9651646,4.846696 0,2.796171 0.9586871,4.4472436 3.6217071,5.1129986 l 3.8081185,0.9586872 c 1.5978124,0.399453 2.3168274,0.9054267 2.3168274,3.0358427 0,2.5298689 -0.878797,2.9559521 -3.7015978,2.9559521 -1.5179213,0.02663 -2.5032387,-0.02663 -5.618972,-0.133151 l -0.1597812,1.730963 c 2.5032387,0.45271339 4.5005037,0.50597379 5.6988626,0.50597379 4.2874624,0 6.1515764,-0.77227578 6.1515764,-5.00647749 0,-2.8494313 -0.878797,-4.4738735 -3.701598,-5.1662587 L 6.1515761,-10.785231 c -1.6244422,-0.399453 -2.3168274,-0.985317 -2.3168274,-3.009212 0,-2.716281 1.0385778,-2.796171 3.7015977,-2.796171 1.7043328,0 3.6483376,0.05326 5.1928886,0.133151 l 0.159782,-1.704333 C 11.051533,-18.561249 9.1607886,-18.66777 7.4298256,-18.6944 Z"
   fill="#007a35"
   id="text20"   
   inkscape:label="S1"
   transform="matrix(1.0571,0,0,1,162.5474,118.0513)" />
   </g>
</g>
</svg>
